<svg width="47" height="30" viewBox="0 0 47 30" fill="none" xmlns="http://www.w3.org/2000/svg">
<g filter="url(#filter0_d)">
<path d="M16.1376 9.632C16.6256 9.768 17.0016 10.016 17.2656 10.376C17.5376 10.736 17.6736 11.176 17.6736 11.696C17.6736 12.416 17.4136 12.98 16.8936 13.388C16.3816 13.796 15.6736 14 14.7696 14H11.6736C11.4416 14 11.2576 13.936 11.1216 13.808C10.9936 13.68 10.9296 13.5 10.9296 13.268V6.272C10.9296 6.04 10.9936 5.86 11.1216 5.732C11.2576 5.604 11.4416 5.54 11.6736 5.54H14.6496C15.5296 5.54 16.2176 5.736 16.7136 6.128C17.2176 6.512 17.4696 7.052 17.4696 7.748C17.4696 8.196 17.3496 8.584 17.1096 8.912C16.8776 9.24 16.5536 9.48 16.1376 9.632ZM12.4416 9.104H14.3976C15.4616 9.104 15.9936 8.708 15.9936 7.916C15.9936 7.516 15.8616 7.22 15.5976 7.028C15.3336 6.836 14.9336 6.74 14.3976 6.74H12.4416V9.104ZM14.6016 12.8C15.1616 12.8 15.5696 12.7 15.8256 12.5C16.0816 12.3 16.2096 11.988 16.2096 11.564C16.2096 11.14 16.0776 10.824 15.8136 10.616C15.5576 10.408 15.1536 10.304 14.6016 10.304H12.4416V12.8H14.6016ZM21.533 7.988C22.349 7.988 22.953 8.192 23.345 8.6C23.745 9 23.945 9.612 23.945 10.436V13.364C23.945 13.58 23.881 13.752 23.753 13.88C23.625 14 23.449 14.06 23.225 14.06C23.017 14.06 22.845 13.996 22.709 13.868C22.581 13.74 22.517 13.572 22.517 13.364V13.1C22.381 13.412 22.165 13.656 21.869 13.832C21.581 14.008 21.245 14.096 20.861 14.096C20.469 14.096 20.113 14.016 19.793 13.856C19.473 13.696 19.221 13.476 19.037 13.196C18.853 12.916 18.761 12.604 18.761 12.26C18.761 11.828 18.869 11.488 19.085 11.24C19.309 10.992 19.669 10.812 20.165 10.7C20.661 10.588 21.345 10.532 22.217 10.532H22.517V10.256C22.517 9.864 22.433 9.58 22.265 9.404C22.097 9.22 21.825 9.128 21.449 9.128C21.217 9.128 20.981 9.164 20.741 9.236C20.501 9.3 20.217 9.396 19.889 9.524C19.681 9.628 19.529 9.68 19.433 9.68C19.289 9.68 19.169 9.628 19.073 9.524C18.985 9.42 18.941 9.284 18.941 9.116C18.941 8.98 18.973 8.864 19.037 8.768C19.109 8.664 19.225 8.568 19.385 8.48C19.665 8.328 19.997 8.208 20.381 8.12C20.773 8.032 21.157 7.988 21.533 7.988ZM21.161 13.016C21.561 13.016 21.885 12.884 22.133 12.62C22.389 12.348 22.517 12 22.517 11.576V11.324H22.301C21.765 11.324 21.349 11.348 21.053 11.396C20.757 11.444 20.545 11.528 20.417 11.648C20.289 11.768 20.225 11.932 20.225 12.14C20.225 12.396 20.313 12.608 20.489 12.776C20.673 12.936 20.897 13.016 21.161 13.016ZM28.0735 14.096C27.4895 14.096 26.9735 13.972 26.5255 13.724C26.0855 13.476 25.7455 13.124 25.5055 12.668C25.2655 12.212 25.1455 11.68 25.1455 11.072C25.1455 10.464 25.2695 9.928 25.5175 9.464C25.7735 8.992 26.1295 8.628 26.5855 8.372C27.0415 8.116 27.5655 7.988 28.1575 7.988C28.4695 7.988 28.7815 8.032 29.0935 8.12C29.4135 8.208 29.6935 8.328 29.9335 8.48C30.1895 8.648 30.3175 8.86 30.3175 9.116C30.3175 9.292 30.2735 9.436 30.1855 9.548C30.1055 9.652 29.9975 9.704 29.8615 9.704C29.7735 9.704 29.6815 9.684 29.5855 9.644C29.4895 9.604 29.3935 9.556 29.2975 9.5C29.1215 9.396 28.9535 9.316 28.7935 9.26C28.6335 9.196 28.4495 9.164 28.2415 9.164C27.7455 9.164 27.3615 9.328 27.0895 9.656C26.8255 9.976 26.6935 10.44 26.6935 11.048C26.6935 11.648 26.8255 12.112 27.0895 12.44C27.3615 12.76 27.7455 12.92 28.2415 12.92C28.4415 12.92 28.6175 12.892 28.7695 12.836C28.9295 12.772 29.1055 12.688 29.2975 12.584C29.4175 12.512 29.5215 12.46 29.6095 12.428C29.6975 12.388 29.7855 12.368 29.8735 12.368C30.0015 12.368 30.1095 12.424 30.1975 12.536C30.2855 12.648 30.3295 12.788 30.3295 12.956C30.3295 13.092 30.2975 13.212 30.2335 13.316C30.1775 13.412 30.0815 13.5 29.9455 13.58C29.6975 13.74 29.4095 13.868 29.0815 13.964C28.7535 14.052 28.4175 14.096 28.0735 14.096ZM36.5488 12.836C36.7088 12.988 36.7888 13.16 36.7888 13.352C36.7888 13.536 36.7208 13.7 36.5848 13.844C36.4568 13.988 36.3048 14.06 36.1288 14.06C35.9528 14.06 35.7888 13.988 35.6368 13.844L32.8288 11.3V13.352C32.8288 13.584 32.7568 13.76 32.6128 13.88C32.4688 14 32.2888 14.06 32.0728 14.06C31.8568 14.06 31.6768 14 31.5328 13.88C31.3968 13.76 31.3288 13.584 31.3288 13.352V6.188C31.3288 5.956 31.3968 5.78 31.5328 5.66C31.6768 5.54 31.8568 5.48 32.0728 5.48C32.2888 5.48 32.4688 5.54 32.6128 5.66C32.7568 5.78 32.8288 5.956 32.8288 6.188V10.7L35.3968 8.24C35.5408 8.096 35.7048 8.024 35.8888 8.024C36.0728 8.024 36.2328 8.092 36.3688 8.228C36.5048 8.364 36.5728 8.524 36.5728 8.708C36.5728 8.892 36.4968 9.06 36.3448 9.212L34.4608 10.964L36.5488 12.836Z" fill="#F8F8F8"/>
</g>
<defs>
<filter id="filter0_d" x="0.929565" y="0.47998" width="45.8593" height="28.616" filterUnits="userSpaceOnUse" color-interpolation-filters="sRGB">
<feFlood flood-opacity="0" result="BackgroundImageFix"/>
<feColorMatrix in="SourceAlpha" type="matrix" values="0 0 0 0 0 0 0 0 0 0 0 0 0 0 0 0 0 0 127 0"/>
<feOffset dy="5"/>
<feGaussianBlur stdDeviation="5"/>
<feColorMatrix type="matrix" values="0 0 0 0 0 0 0 0 0 0 0 0 0 0 0 0 0 0 0.25 0"/>
<feBlend mode="normal" in2="BackgroundImageFix" result="effect1_dropShadow"/>
<feBlend mode="normal" in="SourceGraphic" in2="effect1_dropShadow" result="shape"/>
</filter>
</defs>
</svg>
