<svg width="11" height="11" viewBox="0 0 11 11" fill="none" xmlns="http://www.w3.org/2000/svg">
<path d="M3.61169 1.55379L3.02502 0.852539L0.916687 2.61712L1.50794 3.31837L3.61169 1.55379ZM10.0834 2.62171L7.97502 0.852539L7.38377 1.55379L9.4921 3.32296L10.0834 2.62171ZM5.50002 1.83337C3.2221 1.83337 1.37502 3.68046 1.37502 5.95837C1.37502 8.23629 3.21752 10.0834 5.50002 10.0834C7.77794 10.0834 9.62502 8.23629 9.62502 5.95837C9.62502 3.68046 7.77794 1.83337 5.50002 1.83337ZM5.50002 9.16671C3.72627 9.16671 2.29169 7.73212 2.29169 5.95837C2.29169 4.18462 3.72627 2.75004 5.50002 2.75004C7.27377 2.75004 8.70835 4.18462 8.70835 5.95837C8.70835 7.73212 7.27377 9.16671 5.50002 9.16671ZM5.95835 4.12504H5.04169V5.50004H3.66669V6.41671H5.04169V7.79171H5.95835V6.41671H7.33335V5.50004H5.95835V4.12504Z" fill="#3D8883"/>
</svg>
