<svg width="144" height="13" viewBox="0 0 144 13" fill="none" xmlns="http://www.w3.org/2000/svg">
<path d="M4.45444 10.104C3.80444 10.104 3.18044 10.0087 2.58244 9.818C1.9931 9.61867 1.52077 9.35433 1.16544 9.025C1.03544 8.90367 0.970438 8.752 0.970438 8.57C0.970438 8.44867 1.0051 8.34467 1.07444 8.258C1.14377 8.16267 1.2261 8.115 1.32144 8.115C1.4341 8.115 1.55544 8.16267 1.68544 8.258C2.49144 8.882 3.4101 9.194 4.44144 9.194C5.18677 9.194 5.75877 9.051 6.15744 8.765C6.5561 8.479 6.75544 8.07167 6.75544 7.543C6.75544 7.23967 6.6601 6.997 6.46944 6.815C6.27877 6.62433 6.02744 6.47267 5.71544 6.36C5.40344 6.24733 4.9831 6.13033 4.45444 6.009C3.74377 5.84433 3.15877 5.671 2.69944 5.489C2.24877 5.307 1.88044 5.047 1.59444 4.709C1.3171 4.371 1.17844 3.929 1.17844 3.383C1.17844 2.863 1.3171 2.40367 1.59444 2.005C1.88044 1.59767 2.27477 1.28567 2.77744 1.069C3.28877 0.843666 3.86944 0.730999 4.51944 0.730999C5.1261 0.730999 5.68944 0.826333 6.20944 1.017C6.7381 1.199 7.1801 1.46333 7.53544 1.81C7.6741 1.94867 7.74344 2.10033 7.74344 2.265C7.74344 2.38633 7.70877 2.49467 7.63944 2.59C7.5701 2.67667 7.48777 2.72 7.39244 2.72C7.2971 2.72 7.17144 2.67233 7.01544 2.577C6.59077 2.23033 6.19644 1.98767 5.83244 1.849C5.46844 1.71033 5.03077 1.641 4.51944 1.641C3.8001 1.641 3.2411 1.79267 2.84244 2.096C2.44377 2.39067 2.24444 2.80667 2.24444 3.344C2.24444 3.80333 2.41777 4.15 2.76444 4.384C3.11977 4.60933 3.66144 4.80867 4.38944 4.982C5.1781 5.17267 5.79777 5.35033 6.24844 5.515C6.6991 5.671 7.07177 5.90933 7.36644 6.23C7.66977 6.55067 7.82144 6.97967 7.82144 7.517C7.82144 8.02833 7.67844 8.479 7.39244 8.869C7.1151 9.259 6.72077 9.56233 6.20944 9.779C5.6981 9.99567 5.1131 10.104 4.45444 10.104ZM14.2979 8.531C14.3932 8.531 14.4755 8.57 14.5449 8.648C14.6142 8.726 14.6489 8.82567 14.6489 8.947C14.6489 9.16367 14.4972 9.363 14.1939 9.545C13.8819 9.727 13.5525 9.86567 13.2059 9.961C12.8592 10.0477 12.5212 10.091 12.1919 10.091C11.2125 10.091 10.4369 9.80067 9.86488 9.22C9.30154 8.63933 9.01988 7.83767 9.01988 6.815C9.01988 6.165 9.14554 5.593 9.39688 5.099C9.64821 4.59633 9.99921 4.20633 10.4499 3.929C10.9092 3.65167 11.4292 3.513 12.0099 3.513C12.8332 3.513 13.4875 3.78167 13.9729 4.319C14.4582 4.85633 14.7009 5.58433 14.7009 6.503C14.7009 6.67633 14.6662 6.802 14.5969 6.88C14.5275 6.958 14.4149 6.997 14.2589 6.997H10.0729C10.1509 8.48767 10.8572 9.233 12.1919 9.233C12.5299 9.233 12.8202 9.18967 13.0629 9.103C13.3055 9.00767 13.5655 8.882 13.8429 8.726C14.0682 8.596 14.2199 8.531 14.2979 8.531ZM12.0229 4.332C11.4682 4.332 11.0219 4.50533 10.6839 4.852C10.3545 5.19867 10.1595 5.68833 10.0989 6.321H13.7779C13.7605 5.67967 13.6002 5.19 13.2969 4.852C12.9935 4.50533 12.5689 4.332 12.0229 4.332ZM18.8393 3.513C20.4253 3.513 21.2183 4.345 21.2183 6.009V9.545C21.2183 9.701 21.1707 9.82667 21.0753 9.922C20.9887 10.0173 20.8673 10.065 20.7113 10.065C20.5553 10.065 20.4297 10.0173 20.3343 9.922C20.239 9.82667 20.1913 9.701 20.1913 9.545V8.921C20.0267 9.29367 19.7753 9.584 19.4373 9.792C19.0993 9.99133 18.7093 10.091 18.2673 10.091C17.86 10.091 17.483 10.0087 17.1363 9.844C16.7983 9.67933 16.5297 9.44967 16.3303 9.155C16.131 8.86033 16.0313 8.53533 16.0313 8.18C16.0313 7.70333 16.1527 7.335 16.3953 7.075C16.638 6.80633 17.0367 6.61567 17.5913 6.503C18.146 6.38167 18.9173 6.321 19.9053 6.321H20.1913V5.892C20.1913 5.372 20.083 4.99067 19.8663 4.748C19.6583 4.50533 19.316 4.384 18.8393 4.384C18.25 4.384 17.652 4.54433 17.0453 4.865C16.8113 5.01233 16.6467 5.086 16.5513 5.086C16.4473 5.086 16.3607 5.047 16.2913 4.969C16.222 4.891 16.1873 4.79133 16.1873 4.67C16.1873 4.54867 16.222 4.44467 16.2913 4.358C16.3693 4.26267 16.4907 4.16733 16.6553 4.072C16.9587 3.89867 17.301 3.76433 17.6823 3.669C18.0723 3.565 18.458 3.513 18.8393 3.513ZM18.4103 9.259C18.9303 9.259 19.355 9.08567 19.6843 8.739C20.0223 8.38367 20.1913 7.92867 20.1913 7.374V6.997H19.9573C19.1947 6.997 18.614 7.03167 18.2153 7.101C17.8167 7.16167 17.5307 7.27 17.3573 7.426C17.1927 7.57333 17.1103 7.79433 17.1103 8.089C17.1103 8.427 17.2317 8.70867 17.4743 8.934C17.7257 9.15067 18.0377 9.259 18.4103 9.259ZM26.2789 3.539C26.6429 3.513 26.8249 3.66033 26.8249 3.981C26.8249 4.11967 26.7859 4.23233 26.7079 4.319C26.6299 4.397 26.4956 4.44467 26.3049 4.462L25.9149 4.501C25.3342 4.553 24.9009 4.761 24.6149 5.125C24.3376 5.48033 24.1989 5.90067 24.1989 6.386V9.545C24.1989 9.71833 24.1512 9.84833 24.0559 9.935C23.9606 10.0217 23.8349 10.065 23.6789 10.065C23.5229 10.065 23.3929 10.0217 23.2889 9.935C23.1936 9.83967 23.1459 9.70967 23.1459 9.545V4.059C23.1459 3.89433 23.1979 3.76867 23.3019 3.682C23.4059 3.58667 23.5316 3.539 23.6789 3.539C23.8176 3.539 23.9346 3.58667 24.0299 3.682C24.1252 3.76867 24.1729 3.89 24.1729 4.046V4.774C24.3549 4.39267 24.6106 4.10233 24.9399 3.903C25.2779 3.70367 25.6636 3.58667 26.0969 3.552L26.2789 3.539ZM30.215 10.091C29.6256 10.091 29.1013 9.95667 28.642 9.688C28.1913 9.41933 27.8403 9.038 27.589 8.544C27.3463 8.05 27.225 7.478 27.225 6.828C27.225 6.178 27.3506 5.60167 27.602 5.099C27.862 4.59633 28.2216 4.20633 28.681 3.929C29.1403 3.65167 29.669 3.513 30.267 3.513C30.5963 3.513 30.9213 3.56067 31.242 3.656C31.5713 3.74267 31.8573 3.87267 32.1 4.046C32.256 4.15 32.3643 4.254 32.425 4.358C32.4943 4.45333 32.529 4.56167 32.529 4.683C32.529 4.80433 32.4943 4.904 32.425 4.982C32.3643 5.06 32.282 5.099 32.178 5.099C32.1173 5.099 32.0523 5.08167 31.983 5.047C31.9136 5.01233 31.853 4.97767 31.801 4.943C31.7576 4.90833 31.7273 4.88667 31.71 4.878C31.4846 4.73067 31.268 4.61367 31.06 4.527C30.8606 4.44033 30.6136 4.397 30.319 4.397C29.6863 4.397 29.1923 4.61367 28.837 5.047C28.4903 5.47167 28.317 6.06533 28.317 6.828C28.317 7.59067 28.4903 8.18 28.837 8.596C29.1923 9.012 29.6863 9.22 30.319 9.22C30.6136 9.22 30.865 9.17667 31.073 9.09C31.2896 9.00333 31.5063 8.88633 31.723 8.739C31.8183 8.67833 31.9093 8.62633 31.996 8.583C32.0826 8.53967 32.1563 8.518 32.217 8.518C32.3123 8.518 32.3903 8.557 32.451 8.635C32.5203 8.713 32.555 8.81267 32.555 8.934C32.555 9.04667 32.5246 9.15067 32.464 9.246C32.4033 9.33267 32.2906 9.43233 32.126 9.545C31.8833 9.70967 31.5886 9.844 31.242 9.948C30.904 10.0433 30.5616 10.091 30.215 10.091ZM37.0207 3.513C37.766 3.513 38.3293 3.72533 38.7107 4.15C39.092 4.566 39.2827 5.19 39.2827 6.022V9.545C39.2827 9.70967 39.235 9.83967 39.1397 9.935C39.0443 10.0217 38.9187 10.065 38.7627 10.065C38.598 10.065 38.468 10.0217 38.3727 9.935C38.2773 9.83967 38.2297 9.70967 38.2297 9.545V6.048C38.2297 5.48467 38.1127 5.06867 37.8787 4.8C37.6533 4.53133 37.2893 4.397 36.7867 4.397C36.206 4.397 35.7423 4.57467 35.3957 4.93C35.049 5.28533 34.8757 5.76633 34.8757 6.373V9.545C34.8757 9.70967 34.828 9.83967 34.7327 9.935C34.646 10.0217 34.5203 10.065 34.3557 10.065C34.191 10.065 34.061 10.0217 33.9657 9.935C33.8703 9.83967 33.8227 9.70967 33.8227 9.545V1.277C33.8227 1.12967 33.8703 1.00833 33.9657 0.912999C34.0697 0.817666 34.1997 0.77 34.3557 0.77C34.5203 0.77 34.646 0.817666 34.7327 0.912999C34.828 0.999666 34.8757 1.121 34.8757 1.277V4.683C35.0837 4.30167 35.374 4.01133 35.7467 3.812C36.1193 3.61267 36.544 3.513 37.0207 3.513ZM47.4879 9.233C47.7912 9.259 47.9429 9.39767 47.9429 9.649C47.9429 9.79633 47.8866 9.909 47.7739 9.987C47.6699 10.0563 47.5096 10.0823 47.2929 10.065L46.9419 10.039C46.2486 9.987 45.7372 9.779 45.4079 9.415C45.0786 9.051 44.9139 8.50067 44.9139 7.764V4.501H44.0429C43.8956 4.501 43.7786 4.46633 43.6919 4.397C43.6139 4.319 43.5749 4.21933 43.5749 4.098C43.5749 3.968 43.6139 3.864 43.6919 3.786C43.7786 3.708 43.8956 3.669 44.0429 3.669H44.9139V2.2C44.9139 2.03533 44.9616 1.90967 45.0569 1.823C45.1522 1.72767 45.2822 1.68 45.4469 1.68C45.6029 1.68 45.7286 1.72767 45.8239 1.823C45.9192 1.90967 45.9669 2.03533 45.9669 2.2V3.669H47.4099C47.5486 3.669 47.6569 3.708 47.7349 3.786C47.8216 3.864 47.8649 3.968 47.8649 4.098C47.8649 4.21933 47.8216 4.319 47.7349 4.397C47.6569 4.46633 47.5486 4.501 47.4099 4.501H45.9669V7.816C45.9669 8.29267 46.0622 8.63933 46.2529 8.856C46.4522 9.064 46.7469 9.181 47.1369 9.207L47.4879 9.233ZM52.1789 3.513C52.9242 3.513 53.4875 3.72533 53.8689 4.15C54.2502 4.566 54.4409 5.19 54.4409 6.022V9.545C54.4409 9.70967 54.3932 9.83967 54.2979 9.935C54.2025 10.0217 54.0769 10.065 53.9209 10.065C53.7562 10.065 53.6262 10.0217 53.5309 9.935C53.4355 9.83967 53.3879 9.70967 53.3879 9.545V6.048C53.3879 5.48467 53.2709 5.06867 53.0369 4.8C52.8115 4.53133 52.4475 4.397 51.9449 4.397C51.3642 4.397 50.9005 4.57467 50.5539 4.93C50.2072 5.28533 50.0339 5.76633 50.0339 6.373V9.545C50.0339 9.70967 49.9862 9.83967 49.8909 9.935C49.8042 10.0217 49.6785 10.065 49.5139 10.065C49.3492 10.065 49.2192 10.0217 49.1239 9.935C49.0285 9.83967 48.9809 9.70967 48.9809 9.545V1.277C48.9809 1.12967 49.0285 1.00833 49.1239 0.912999C49.2279 0.817666 49.3579 0.77 49.5139 0.77C49.6785 0.77 49.8042 0.817666 49.8909 0.912999C49.9862 0.999666 50.0339 1.121 50.0339 1.277V4.683C50.2419 4.30167 50.5322 4.01133 50.9049 3.812C51.2775 3.61267 51.7022 3.513 52.1789 3.513ZM61.2705 8.531C61.3659 8.531 61.4482 8.57 61.5175 8.648C61.5869 8.726 61.6215 8.82567 61.6215 8.947C61.6215 9.16367 61.4699 9.363 61.1665 9.545C60.8545 9.727 60.5252 9.86567 60.1785 9.961C59.8319 10.0477 59.4939 10.091 59.1645 10.091C58.1852 10.091 57.4095 9.80067 56.8375 9.22C56.2742 8.63933 55.9925 7.83767 55.9925 6.815C55.9925 6.165 56.1182 5.593 56.3695 5.099C56.6209 4.59633 56.9719 4.20633 57.4225 3.929C57.8819 3.65167 58.4019 3.513 58.9825 3.513C59.8059 3.513 60.4602 3.78167 60.9455 4.319C61.4309 4.85633 61.6735 5.58433 61.6735 6.503C61.6735 6.67633 61.6389 6.802 61.5695 6.88C61.5002 6.958 61.3875 6.997 61.2315 6.997H57.0455C57.1235 8.48767 57.8299 9.233 59.1645 9.233C59.5025 9.233 59.7929 9.18967 60.0355 9.103C60.2782 9.00767 60.5382 8.882 60.8155 8.726C61.0409 8.596 61.1925 8.531 61.2705 8.531ZM58.9955 4.332C58.4409 4.332 57.9945 4.50533 57.6565 4.852C57.3272 5.19867 57.1322 5.68833 57.0715 6.321H60.7505C60.7332 5.67967 60.5729 5.19 60.2695 4.852C59.9662 4.50533 59.5415 4.332 58.9955 4.332ZM67.2786 10C67.1139 10 66.9796 9.95233 66.8756 9.857C66.7802 9.76167 66.7326 9.636 66.7326 9.48V1.355C66.7326 1.199 66.7802 1.07333 66.8756 0.978C66.9796 0.882666 67.1139 0.834999 67.2786 0.834999H72.1406C72.2966 0.834999 72.4179 0.873999 72.5046 0.951999C72.5912 1.03 72.6346 1.13833 72.6346 1.277C72.6346 1.41567 72.5912 1.524 72.5046 1.602C72.4179 1.68 72.2966 1.719 72.1406 1.719H67.7856V4.904H71.8806C72.0366 4.904 72.1579 4.943 72.2446 5.021C72.3312 5.099 72.3746 5.20733 72.3746 5.346C72.3746 5.48467 72.3312 5.593 72.2446 5.671C72.1579 5.749 72.0366 5.788 71.8806 5.788H67.7856V9.116H72.1406C72.2966 9.116 72.4179 9.155 72.5046 9.233C72.5912 9.30233 72.6346 9.41067 72.6346 9.558C72.6346 9.69667 72.5912 9.805 72.5046 9.883C72.4179 9.961 72.2966 10 72.1406 10H67.2786ZM76.73 3.513C78.316 3.513 79.109 4.345 79.109 6.009V9.545C79.109 9.701 79.0613 9.82667 78.966 9.922C78.8793 10.0173 78.758 10.065 78.602 10.065C78.446 10.065 78.3203 10.0173 78.225 9.922C78.1296 9.82667 78.082 9.701 78.082 9.545V8.921C77.9173 9.29367 77.666 9.584 77.328 9.792C76.99 9.99133 76.6 10.091 76.158 10.091C75.7506 10.091 75.3736 10.0087 75.027 9.844C74.689 9.67933 74.4203 9.44967 74.221 9.155C74.0216 8.86033 73.922 8.53533 73.922 8.18C73.922 7.70333 74.0433 7.335 74.286 7.075C74.5286 6.80633 74.9273 6.61567 75.482 6.503C76.0366 6.38167 76.808 6.321 77.796 6.321H78.082V5.892C78.082 5.372 77.9736 4.99067 77.757 4.748C77.549 4.50533 77.2066 4.384 76.73 4.384C76.1406 4.384 75.5426 4.54433 74.936 4.865C74.702 5.01233 74.5373 5.086 74.442 5.086C74.338 5.086 74.2513 5.047 74.182 4.969C74.1126 4.891 74.078 4.79133 74.078 4.67C74.078 4.54867 74.1126 4.44467 74.182 4.358C74.26 4.26267 74.3813 4.16733 74.546 4.072C74.8493 3.89867 75.1916 3.76433 75.573 3.669C75.963 3.565 76.3486 3.513 76.73 3.513ZM76.301 9.259C76.821 9.259 77.2456 9.08567 77.575 8.739C77.913 8.38367 78.082 7.92867 78.082 7.374V6.997H77.848C77.0853 6.997 76.5046 7.03167 76.106 7.101C75.7073 7.16167 75.4213 7.27 75.248 7.426C75.0833 7.57333 75.001 7.79433 75.001 8.089C75.001 8.427 75.1223 8.70867 75.365 8.934C75.6163 9.15067 75.9283 9.259 76.301 9.259ZM83.1685 10.091C82.7699 10.091 82.3885 10.0433 82.0245 9.948C81.6692 9.85267 81.3529 9.71833 81.0755 9.545C80.9195 9.441 80.8069 9.34567 80.7375 9.259C80.6769 9.16367 80.6465 9.051 80.6465 8.921C80.6465 8.80833 80.6769 8.71733 80.7375 8.648C80.8069 8.57 80.8935 8.531 80.9975 8.531C81.1015 8.531 81.2532 8.596 81.4525 8.726C81.7125 8.882 81.9682 9.00767 82.2195 9.103C82.4795 9.18967 82.8002 9.233 83.1815 9.233C83.6495 9.233 84.0135 9.15067 84.2735 8.986C84.5335 8.82133 84.6635 8.583 84.6635 8.271C84.6635 8.08033 84.6159 7.92867 84.5205 7.816C84.4252 7.69467 84.2605 7.59067 84.0265 7.504C83.7925 7.40867 83.4502 7.31333 82.9995 7.218C82.2369 7.05333 81.6909 6.83233 81.3615 6.555C81.0322 6.27767 80.8675 5.90067 80.8675 5.424C80.8675 5.05133 80.9715 4.722 81.1795 4.436C81.3875 4.15 81.6735 3.92467 82.0375 3.76C82.4102 3.59533 82.8305 3.513 83.2985 3.513C83.6365 3.513 83.9615 3.56067 84.2735 3.656C84.5942 3.74267 84.8759 3.86833 85.1185 4.033C85.4132 4.241 85.5605 4.45767 85.5605 4.683C85.5605 4.79567 85.5259 4.891 85.4565 4.969C85.3872 5.047 85.3049 5.086 85.2095 5.086C85.1055 5.086 84.9495 5.01233 84.7415 4.865C84.4989 4.709 84.2692 4.58767 84.0525 4.501C83.8359 4.41433 83.5672 4.371 83.2465 4.371C82.8392 4.371 82.5099 4.462 82.2585 4.644C82.0159 4.826 81.8945 5.06867 81.8945 5.372C81.8945 5.56267 81.9379 5.71867 82.0245 5.84C82.1199 5.95267 82.2715 6.05667 82.4795 6.152C82.6962 6.23867 83.0039 6.32533 83.4025 6.412C83.9919 6.542 84.4469 6.685 84.7675 6.841C85.0969 6.997 85.3309 7.18767 85.4695 7.413C85.6082 7.63833 85.6775 7.92433 85.6775 8.271C85.6775 8.817 85.4479 9.259 84.9885 9.597C84.5292 9.92633 83.9225 10.091 83.1685 10.091ZM91.7314 3.864C91.8267 3.656 91.9784 3.552 92.1864 3.552C92.3164 3.552 92.4334 3.59533 92.5374 3.682C92.6414 3.76867 92.6934 3.877 92.6934 4.007C92.6934 4.085 92.676 4.15433 92.6414 4.215L88.9884 12.093C88.945 12.1883 88.88 12.262 88.7934 12.314C88.7154 12.366 88.633 12.392 88.5464 12.392C88.4164 12.392 88.2994 12.3487 88.1954 12.262C88.1 12.184 88.0524 12.08 88.0524 11.95C88.0524 11.8807 88.0697 11.8113 88.1044 11.742L89.0144 9.779L86.4404 4.215C86.4057 4.15433 86.3884 4.08933 86.3884 4.02C86.3884 3.89 86.4447 3.77733 86.5574 3.682C86.6787 3.58667 86.8087 3.539 86.9474 3.539C87.034 3.539 87.1164 3.565 87.1944 3.617C87.281 3.669 87.346 3.74267 87.3894 3.838L89.5604 8.713L91.7314 3.864ZM102.14 0.77C102.305 0.77 102.43 0.822 102.517 0.926C102.612 1.02133 102.66 1.15133 102.66 1.316V9.545C102.66 9.701 102.617 9.82667 102.53 9.922C102.443 10.0173 102.322 10.065 102.166 10.065C102.01 10.065 101.893 10.0173 101.815 9.922C101.737 9.82667 101.698 9.701 101.698 9.545V2.902L98.8771 8.31C98.7558 8.56133 98.5781 8.687 98.3441 8.687C98.1188 8.687 97.9411 8.56133 97.8111 8.31L94.9771 2.967V9.545C94.9771 9.701 94.9338 9.82667 94.8471 9.922C94.7691 10.0173 94.6521 10.065 94.4961 10.065C94.3401 10.065 94.2188 10.0173 94.1321 9.922C94.0454 9.82667 94.0021 9.701 94.0021 9.545V1.316C94.0021 1.15133 94.0498 1.02133 94.1451 0.926C94.2404 0.822 94.3704 0.77 94.5351 0.77C94.7518 0.77 94.9251 0.895666 95.0551 1.147L98.3571 7.478L101.62 1.147C101.689 1.00833 101.763 0.913 101.841 0.861C101.928 0.800333 102.027 0.77 102.14 0.77ZM109.678 8.531C109.773 8.531 109.855 8.57 109.925 8.648C109.994 8.726 110.029 8.82567 110.029 8.947C110.029 9.16367 109.877 9.363 109.574 9.545C109.262 9.727 108.932 9.86567 108.586 9.961C108.239 10.0477 107.901 10.091 107.572 10.091C106.592 10.091 105.817 9.80067 105.245 9.22C104.681 8.63933 104.4 7.83767 104.4 6.815C104.4 6.165 104.525 5.593 104.777 5.099C105.028 4.59633 105.379 4.20633 105.83 3.929C106.289 3.65167 106.809 3.513 107.39 3.513C108.213 3.513 108.867 3.78167 109.353 4.319C109.838 4.85633 110.081 5.58433 110.081 6.503C110.081 6.67633 110.046 6.802 109.977 6.88C109.907 6.958 109.795 6.997 109.639 6.997H105.453C105.531 8.48767 106.237 9.233 107.572 9.233C107.91 9.233 108.2 9.18967 108.443 9.103C108.685 9.00767 108.945 8.882 109.223 8.726C109.448 8.596 109.6 8.531 109.678 8.531ZM107.403 4.332C106.848 4.332 106.402 4.50533 106.064 4.852C105.734 5.19867 105.539 5.68833 105.479 6.321H109.158C109.14 5.67967 108.98 5.19 108.677 4.852C108.373 4.50533 107.949 4.332 107.403 4.332ZM116.715 0.77C116.88 0.77 117.01 0.817666 117.105 0.912999C117.201 1.00833 117.248 1.12967 117.248 1.277V9.545C117.248 9.701 117.201 9.82667 117.105 9.922C117.01 10.0173 116.88 10.065 116.715 10.065C116.551 10.065 116.421 10.0173 116.325 9.922C116.239 9.82667 116.195 9.701 116.195 9.545V8.843C116.005 9.24167 115.723 9.54933 115.35 9.766C114.986 9.98267 114.557 10.091 114.063 10.091C113.509 10.091 113.019 9.95233 112.594 9.675C112.17 9.39767 111.84 9.012 111.606 8.518C111.372 8.01533 111.255 7.43467 111.255 6.776C111.255 6.126 111.372 5.554 111.606 5.06C111.84 4.566 112.17 4.18467 112.594 3.916C113.019 3.64733 113.509 3.513 114.063 3.513C114.557 3.513 114.986 3.62133 115.35 3.838C115.723 4.05467 116.005 4.36233 116.195 4.761V1.277C116.195 1.121 116.239 0.999666 116.325 0.912999C116.421 0.817666 116.551 0.77 116.715 0.77ZM114.271 9.22C114.887 9.22 115.359 9.012 115.688 8.596C116.026 8.17133 116.195 7.57333 116.195 6.802C116.195 6.03067 116.026 5.437 115.688 5.021C115.359 4.605 114.887 4.397 114.271 4.397C113.656 4.397 113.175 4.605 112.828 5.021C112.49 5.437 112.321 6.022 112.321 6.776C112.321 7.54733 112.49 8.14967 112.828 8.583C113.175 9.00767 113.656 9.22 114.271 9.22ZM125.137 3.513C126.723 3.513 127.516 4.345 127.516 6.009V9.545C127.516 9.701 127.469 9.82667 127.373 9.922C127.287 10.0173 127.165 10.065 127.009 10.065C126.853 10.065 126.728 10.0173 126.632 9.922C126.537 9.82667 126.489 9.701 126.489 9.545V8.921C126.325 9.29367 126.073 9.584 125.735 9.792C125.397 9.99133 125.007 10.091 124.565 10.091C124.158 10.091 123.781 10.0087 123.434 9.844C123.096 9.67933 122.828 9.44967 122.628 9.155C122.429 8.86033 122.329 8.53533 122.329 8.18C122.329 7.70333 122.451 7.335 122.693 7.075C122.936 6.80633 123.335 6.61567 123.889 6.503C124.444 6.38167 125.215 6.321 126.203 6.321H126.489V5.892C126.489 5.372 126.381 4.99067 126.164 4.748C125.956 4.50533 125.614 4.384 125.137 4.384C124.548 4.384 123.95 4.54433 123.343 4.865C123.109 5.01233 122.945 5.086 122.849 5.086C122.745 5.086 122.659 5.047 122.589 4.969C122.52 4.891 122.485 4.79133 122.485 4.67C122.485 4.54867 122.52 4.44467 122.589 4.358C122.667 4.26267 122.789 4.16733 122.953 4.072C123.257 3.89867 123.599 3.76433 123.98 3.669C124.37 3.565 124.756 3.513 125.137 3.513ZM124.708 9.259C125.228 9.259 125.653 9.08567 125.982 8.739C126.32 8.38367 126.489 7.92867 126.489 7.374V6.997H126.255C125.493 6.997 124.912 7.03167 124.513 7.101C124.115 7.16167 123.829 7.27 123.655 7.426C123.491 7.57333 123.408 7.79433 123.408 8.089C123.408 8.427 123.53 8.70867 123.772 8.934C124.024 9.15067 124.336 9.259 124.708 9.259ZM132.629 3.513C133.183 3.513 133.673 3.65167 134.098 3.929C134.522 4.20633 134.852 4.59633 135.086 5.099C135.32 5.593 135.437 6.16933 135.437 6.828C135.437 7.48667 135.32 8.063 135.086 8.557C134.852 9.04233 134.522 9.41933 134.098 9.688C133.682 9.95667 133.192 10.091 132.629 10.091C132.135 10.091 131.701 9.98267 131.329 9.766C130.965 9.54933 130.687 9.24167 130.497 8.843V11.898C130.497 12.054 130.449 12.1753 130.354 12.262C130.267 12.3573 130.141 12.405 129.977 12.405C129.812 12.405 129.682 12.3573 129.587 12.262C129.491 12.1667 129.444 12.0453 129.444 11.898V4.059C129.444 3.903 129.491 3.77733 129.587 3.682C129.682 3.58667 129.812 3.539 129.977 3.539C130.141 3.539 130.267 3.58667 130.354 3.682C130.449 3.77733 130.497 3.903 130.497 4.059V4.761C130.687 4.36233 130.965 4.05467 131.329 3.838C131.701 3.62133 132.135 3.513 132.629 3.513ZM132.421 9.22C133.036 9.22 133.513 9.012 133.851 8.596C134.189 8.18 134.358 7.59067 134.358 6.828C134.358 6.06533 134.189 5.47167 133.851 5.047C133.513 4.61367 133.036 4.397 132.421 4.397C131.805 4.397 131.329 4.605 130.991 5.021C130.661 5.437 130.497 6.03067 130.497 6.802C130.497 7.57333 130.661 8.17133 130.991 8.596C131.329 9.012 131.805 9.22 132.421 9.22ZM140.195 3.513C140.75 3.513 141.239 3.65167 141.664 3.929C142.089 4.20633 142.418 4.59633 142.652 5.099C142.886 5.593 143.003 6.16933 143.003 6.828C143.003 7.48667 142.886 8.063 142.652 8.557C142.418 9.04233 142.089 9.41933 141.664 9.688C141.248 9.95667 140.758 10.091 140.195 10.091C139.701 10.091 139.268 9.98267 138.895 9.766C138.531 9.54933 138.254 9.24167 138.063 8.843V11.898C138.063 12.054 138.015 12.1753 137.92 12.262C137.833 12.3573 137.708 12.405 137.543 12.405C137.378 12.405 137.248 12.3573 137.153 12.262C137.058 12.1667 137.01 12.0453 137.01 11.898V4.059C137.01 3.903 137.058 3.77733 137.153 3.682C137.248 3.58667 137.378 3.539 137.543 3.539C137.708 3.539 137.833 3.58667 137.92 3.682C138.015 3.77733 138.063 3.903 138.063 4.059V4.761C138.254 4.36233 138.531 4.05467 138.895 3.838C139.268 3.62133 139.701 3.513 140.195 3.513ZM139.987 9.22C140.602 9.22 141.079 9.012 141.417 8.596C141.755 8.18 141.924 7.59067 141.924 6.828C141.924 6.06533 141.755 5.47167 141.417 5.047C141.079 4.61367 140.602 4.397 139.987 4.397C139.372 4.397 138.895 4.605 138.557 5.021C138.228 5.437 138.063 6.03067 138.063 6.802C138.063 7.57333 138.228 8.17133 138.557 8.596C138.895 9.012 139.372 9.22 139.987 9.22Z" fill="#8E9998"/>
</svg>
